<svg width="256" height="256" viewBox="0 0 256 256" fill="none" xmlns="http://www.w3.org/2000/svg">
<g clip-path="url(#clip0)">
<path fill-rule="evenodd" clip-rule="evenodd" d="M94.864 28.1134C95.404 27.212 95.7612 26.2131 95.9151 25.1737C96.069 24.1343 96.0168 23.0747 95.7612 22.0555C95.5057 21.0363 95.0519 20.0774 94.4257 19.2335C93.7996 18.3897 93.0134 17.6774 92.112 17.1374C91.2106 16.5974 90.2117 16.2403 89.1723 16.0863C88.1328 15.9324 87.0733 15.9847 86.054 16.2402C85.0348 16.4958 84.0759 16.9496 83.2321 17.5757C82.3882 18.2018 81.676 18.988 81.136 19.8894L35.472 96.0014H8C5.87827 96.0014 3.84344 96.8443 2.34315 98.3446C0.842855 99.8449 0 101.88 0 104.001L0 120.001C0 122.123 0.842855 124.158 2.34315 125.658C3.84344 127.159 5.87827 128.001 8 128.001H17.968L47.472 231.297C48.1897 233.81 49.7078 236.019 51.7956 237.59C53.8835 239.161 56.4271 240.008 59.04 240.001H196.992C199.602 240.004 202.142 239.156 204.227 237.585C206.311 236.015 207.827 233.807 208.544 231.297L238.032 128.001H248C250.122 128.001 252.157 127.159 253.657 125.658C255.157 124.158 256 122.123 256 120.001V104.001C256 101.88 255.157 99.8449 253.657 98.3446C252.157 96.8443 250.122 96.0014 248 96.0014H220.528L174.88 19.8894C174.34 18.988 173.628 18.2018 172.784 17.5757C171.94 16.9496 170.981 16.4958 169.962 16.2402C168.943 15.9847 167.883 15.9324 166.844 16.0863C165.804 16.2403 164.805 16.5974 163.904 17.1374C163.003 17.6774 162.216 18.3897 161.59 19.2335C160.964 20.0774 160.51 21.0363 160.255 22.0555C159.999 23.0747 159.947 24.1343 160.101 25.1737C160.255 26.2131 160.612 27.212 161.152 28.1134L201.872 96.0014H54.128L94.88 28.1134H94.864ZM64 160.001C64 155.758 65.6857 151.688 68.6863 148.688C71.6869 145.687 75.7565 144.001 80 144.001C84.2435 144.001 88.3131 145.687 91.3137 148.688C94.3143 151.688 96 155.758 96 160.001V192.001C96 196.245 94.3143 200.315 91.3137 203.315C88.3131 206.316 84.2435 208.001 80 208.001C75.7565 208.001 71.6869 206.316 68.6863 203.315C65.6857 200.315 64 196.245 64 192.001V160.001ZM112 160.001C112 155.758 113.686 151.688 116.686 148.688C119.687 145.687 123.757 144.001 128 144.001C132.243 144.001 136.313 145.687 139.314 148.688C142.314 151.688 144 155.758 144 160.001V192.001C144 196.245 142.314 200.315 139.314 203.315C136.313 206.316 132.243 208.001 128 208.001C123.757 208.001 119.687 206.316 116.686 203.315C113.686 200.315 112 196.245 112 192.001V160.001ZM176 144.001C171.757 144.001 167.687 145.687 164.686 148.688C161.686 151.688 160 155.758 160 160.001V192.001C160 196.245 161.686 200.315 164.686 203.315C167.687 206.316 171.757 208.001 176 208.001C180.243 208.001 184.313 206.316 187.314 203.315C190.314 200.315 192 196.245 192 192.001V160.001C192 155.758 190.314 151.688 187.314 148.688C184.313 145.687 180.243 144.001 176 144.001Z" fill="#F44336"/>
</g>
<defs>
<clipPath id="clip0">
<rect width="256" height="256" fill="white"/>
</clipPath>
</defs>
</svg>
