<svg width="32" height="32" viewBox="0 0 32 32" fill="none" xmlns="http://www.w3.org/2000/svg">
<g clip-path="url(#clip0)">
<path fill-rule="evenodd" clip-rule="evenodd" d="M11.858 3.51418C11.9255 3.40151 11.9701 3.27664 11.9894 3.14671C12.0086 3.01678 12.0021 2.88434 11.9702 2.75694C11.9382 2.62953 11.8815 2.50967 11.8032 2.40419C11.725 2.29871 11.6267 2.20968 11.514 2.14218C11.4013 2.07468 11.2765 2.03003 11.1465 2.01079C11.0166 1.99155 10.8842 1.99809 10.7568 2.03003C10.6294 2.06197 10.5095 2.1187 10.404 2.19696C10.2985 2.27523 10.2095 2.37351 10.142 2.48618L4.434 12.0002H1C0.734784 12.0002 0.48043 12.1055 0.292893 12.2931C0.105357 12.4806 0 12.735 0 13.0002L0 15.0002C0 15.2654 0.105357 15.5198 0.292893 15.7073C0.48043 15.8948 0.734784 16.0002 1 16.0002H2.246L5.934 28.9122C6.02371 29.2262 6.21347 29.5024 6.47445 29.6988C6.73544 29.8952 7.05339 30.001 7.38 30.0002H24.624C24.9503 30.0005 25.2678 29.8945 25.5283 29.6982C25.7889 29.5018 25.9784 29.2259 26.068 28.9122L29.754 16.0002H31C31.2652 16.0002 31.5196 15.8948 31.7071 15.7073C31.8946 15.5198 32 15.2654 32 15.0002V13.0002C32 12.735 31.8946 12.4806 31.7071 12.2931C31.5196 12.1055 31.2652 12.0002 31 12.0002H27.566L21.86 2.48618C21.7925 2.37351 21.7035 2.27523 21.598 2.19696C21.4925 2.1187 21.3726 2.06197 21.2452 2.03003C21.1178 1.99809 20.9854 1.99155 20.8555 2.01079C20.7255 2.03003 20.6007 2.07468 20.488 2.14218C20.3753 2.20968 20.2771 2.29871 20.1988 2.40419C20.1205 2.50967 20.0638 2.62953 20.0318 2.75694C19.9999 2.88434 19.9934 3.01678 20.0126 3.14671C20.0319 3.27664 20.0765 3.40151 20.144 3.51418L25.234 12.0002H6.766L11.86 3.51418H11.858ZM8 20.0002C8 19.4697 8.21071 18.961 8.58579 18.586C8.96086 18.2109 9.46957 18.0002 10 18.0002C10.5304 18.0002 11.0391 18.2109 11.4142 18.586C11.7893 18.961 12 19.4697 12 20.0002V24.0002C12 24.5306 11.7893 25.0393 11.4142 25.4144C11.0391 25.7895 10.5304 26.0002 10 26.0002C9.46957 26.0002 8.96086 25.7895 8.58579 25.4144C8.21071 25.0393 8 24.5306 8 24.0002V20.0002ZM14 20.0002C14 19.4697 14.2107 18.961 14.5858 18.586C14.9609 18.2109 15.4696 18.0002 16 18.0002C16.5304 18.0002 17.0391 18.2109 17.4142 18.586C17.7893 18.961 18 19.4697 18 20.0002V24.0002C18 24.5306 17.7893 25.0393 17.4142 25.4144C17.0391 25.7895 16.5304 26.0002 16 26.0002C15.4696 26.0002 14.9609 25.7895 14.5858 25.4144C14.2107 25.0393 14 24.5306 14 24.0002V20.0002ZM22 18.0002C21.4696 18.0002 20.9609 18.2109 20.5858 18.586C20.2107 18.961 20 19.4697 20 20.0002V24.0002C20 24.5306 20.2107 25.0393 20.5858 25.4144C20.9609 25.7895 21.4696 26.0002 22 26.0002C22.5304 26.0002 23.0391 25.7895 23.4142 25.4144C23.7893 25.0393 24 24.5306 24 24.0002V20.0002C24 19.4697 23.7893 18.961 23.4142 18.586C23.0391 18.2109 22.5304 18.0002 22 18.0002Z" fill="#F44336"/>
</g>
<defs>
<clipPath id="clip0">
<rect width="32" height="32" fill="white"/>
</clipPath>
</defs>
</svg>
